<svg xmlns="http://www.w3.org/2000/svg" viewBox="0 0 230.102 169.59"><g fill="none"><path d="M134.077 47.337c-5.239-1.11-10.477.867-15.715 3.772M127.706 38.85c-4.22 2.429-7.434 6.366-9.344 12.259M113.86 35.27c.033 7.848 2.202 11.957 4.502 15.839M104.794 43.166c3.747 4.972 8.702 6.324 13.568 7.943M106.182 56.903c4.837-.766 9.604-1.637 12.18-5.794M136.44 11.286c-1.197 6.038 1.423 8.258 4.503 10.018M150.287 9.045c-4.028 1.348-7.477 4.431-9.344 12.259M165.873 21.98c1.43 5.324 4.424 8.044 7.558 10.53M179.226 21.055c-5.59 4.224-5.15 7.78-5.795 11.454M185.96 26.348c-4.466.312-8.64 2.385-12.53 6.161M183.549 43.878c-6.607-2.173-7.917-6.993-10.118-11.369M192.689 59.903c-3.853 1.364-7.572 2.996-9.722 7.765M193.085 79.037c-4.297-1.326-7.553-5.428-10.118-11.369M174.926 78.471c4.987-1.582 7.673-5.178 8.04-10.803" stroke="#bdd4e7" stroke-width=".265"/><path d="M116.76 82.685c8.914-9.144 17.843-18.289 37.472-27.433" stroke="#bdd4e7" stroke-width=".794"/><path d="M140.943 21.304c9.927 8.796 11.669 21.344 13.29 33.948M173.43 32.51c-3.787 9.79-10.825 16.83-19.198 22.742M182.967 67.668c-8.46-6.377-17.082-12.426-28.735-12.416M118.362 51.109c10.155 3.983 22.54 4.745 35.87 4.143" stroke="#bdd4e7" stroke-width=".529"/><path d="M183.979 97.617c3.085 1.49 5.978 3.27 6.792 8.167M200.494 98.02c-4.356.73-7.063 4.208-9.723 7.764M197.644 116.404c-3.12-2.296-6.026-4.914-6.873-10.62M183.962 132.636c3.675 6.87.591 9.234-.553 12.892M191.945 135.872c-.45 5.216-4.768 7.206-8.536 9.656M196.923 142.17c-4.505 3.843-9.01 3.424-13.514 3.358M193.527 156.896c-6.043-.23-7.223-6.943-10.118-11.368M183.838 159.21c-2.388-3.812-1.426-8.742-.43-13.682M173.946 154.8c.99-4.533 3.305-8.184 9.463-9.272M159.339 142.207c-2.244-5-6.471-3.39-10.367-2.882M137.976 138.799c3.665-2.148 7.33-.68 10.996.526M142.179 131.158c5.95.142 6.502 4.063 6.793 8.167" stroke="#637074" stroke-width=".265"/><path d="M163.706 118.025c4.148 12.027 9.275 22.898 19.703 27.503M190.771 105.784c-6.72 11.371-16.982 11.52-27.065 12.241M148.972 139.325c10.902-3.439 14.17-11.543 14.734-21.3" stroke="#637074" stroke-width=".529"/><path d="M116.76 82.685c15.65 30.968 31.298 30.144 46.946 35.34" stroke="#637074" stroke-width=".794"/><path d="M73.1 17.562c-7.891-1.919-11.25 1.45-15.634 3.624M63.165 9.81c-4.71 3.793-5.236 7.584-5.699 11.376M48.403 11.838c-1.56 4.526 2.589 7.295 9.063 9.348M41.956 22.187c4.75 2.602 10.16.593 15.51-1" stroke="#816c61" stroke-width=".265"/><path d="M116.76 82.685C89.339 61.42 63.553 40.318 57.467 21.186" stroke="#816c61" stroke-width=".794"/><path d="M52.192 50.985c-7.03-.325-8.89 3.66-12.53 6.161M45.458 45.692c-4.366 3.21-6.394 7.003-5.795 11.454M32.105 46.617c-.714 5.819 4.247 7.584 7.558 10.53M25.57 56.033c5.593 4.398 9.669 1.973 14.093 1.113M35.998 70.172c2.278 3.53 2.843 7.489.168 12.258M24.45 75.969c5.806-.887 8.975 2.444 11.716 6.46M23.245 90.076c5.066-.777 9.704-2.554 12.92-7.646" stroke="#2274a5" stroke-width=".265"/><path d="M39.663 57.146c5.948 7.813 14.676 13.401 26.051 16.872M36.166 82.43c9.07-7.869 19.257-8.48 29.548-8.412" stroke="#2274a5" stroke-width=".529"/><path d="M116.76 82.685c-16.137-3.943-29.926-10.703-51.046-8.667" stroke="#2274a5" stroke-width=".794"/><path d="M41.335 105.55c-.161 6.473-3.284 8.504-5.795 11.454M27.982 106.474c6.514 1.735 6.323 6.45 7.558 10.53M21.448 115.89c9.063-3.995 10.065.073 14.092 1.114M47.377 134.765c4.312 2.641 5.182 7.003 5.84 11.47M38.852 144.127c7.794-2.733 10.733.084 14.365 2.109M38.507 153.333c4.483-7.406 9.628-6.88 14.71-7.097M45.92 160.198c-.134-4.975 2.467-9.608 7.297-13.962M56.68 159.994c-2.061-1.261-3.264-5.671-3.463-13.758M64.318 153.88c-4.501.656-7.814-3.445-11.101-7.644" stroke="#8693ab" stroke-width=".265"/><path d="M35.54 117.004c18-9.058 30.954-9.538 42.81-8.148M53.217 146.236c4.831-24.872 15.606-28.94 25.132-37.38M116.76 82.685c-8.696 13.555-19.266 24.907-38.41 26.17" stroke="#8693ab" stroke-width=".794"/><path d="M93.192 149.054c5.541-5.388 9.469-1.898 13.86-.955M97.638 160.54c6.82-3.226 7.2-8.062 9.413-12.44M109.406 159.994c3.28-7.013-1.229-8.186-2.355-11.895M121.633 153.324c-3.597-5.53-9.188-5.082-14.582-5.225" stroke="#e7dfc6" stroke-width=".265"/><path d="M116.76 82.685c-.4 21.934 3.478 44.062-9.709 65.414" stroke="#e7dfc6" stroke-width=".794"/></g><g transform="translate(-5.247 -98.966)"><circle cx="-42.174" cy="214.72" r="5.292" transform="rotate(-45)" fill="#d6a31f"/><g fill="#bdd4e7"><circle r="2.646" cy="131.475" cx="178.678"/><circle r="1.323" cy="120.021" cx="184.473"/><circle r="1.323" cy="125.314" cx="191.208"/><circle transform="rotate(-45)" r="3.969" cy="221.818" cx="3.721"/><text y="173.124" x="145.513" style="line-height:1.25" font-weight="400" font-size="10.583" font-family="sans-serif" letter-spacing="0" word-spacing="0" stroke-width=".265"><tspan y="173.124" x="145.513" font-size="8.467">Node.JS</tspan></text><text y="136.776" x="185.882" style="line-height:1.25" font-weight="400" font-size="10.583" font-family="sans-serif" letter-spacing="0" word-spacing="0" stroke-width=".265"><tspan y="136.776" x="185.882" font-size="7.056">Frameworks</tspan></text><text y="122.428" x="193.609" style="line-height:1.25" font-weight="400" font-size="10.583" font-family="sans-serif" letter-spacing="0" word-spacing="0" stroke-width=".265"><tspan y="122.428" x="193.609" font-size="5.644">Express.js</tspan></text><text y="115.265" x="182.566" style="line-height:1.25" font-weight="400" font-size="10.583" font-family="sans-serif" letter-spacing="0" word-spacing="0" stroke-width=".265"><tspan y="115.265" x="182.566" font-size="5.644">Sails.js</tspan></text><circle r="1.323" cy="142.844" cx="188.796"/><text y="146.449" x="191.269" style="line-height:1.25" font-weight="400" font-size="10.583" font-family="sans-serif" letter-spacing="0" word-spacing="0" stroke-width=".265"><tspan y="146.449" x="191.269" font-size="5.644">Loopback</tspan></text><circle r="1.323" cy="120.946" cx="171.12"/><text y="117.143" x="157.239" style="line-height:1.25" font-weight="400" font-size="10.583" font-family="sans-serif" letter-spacing="0" word-spacing="0" stroke-width=".265"><tspan y="117.143" x="157.239" font-size="5.644">Electron</tspan></text><circle r="2.646" cy="150.075" cx="123.609"/><circle r="1.323" cy="137.816" cx="132.953"/><circle r="1.323" cy="146.303" cx="139.324"/><text y="163.396" x="119.383" style="line-height:1.25" font-weight="400" font-size="10.583" font-family="sans-serif" letter-spacing="0" word-spacing="0" stroke-width=".265"><tspan y="163.396" x="119.383" font-size="7.056">Tools</tspan></text><text y="144.213" x="141.725" style="line-height:1.25" font-weight="400" font-size="10.583" font-family="sans-serif" letter-spacing="0" word-spacing="0" stroke-width=".265"><tspan y="144.213" x="141.725" font-size="5.644">Gulp</tspan></text><text y="133.059" x="130.25" style="line-height:1.25" font-weight="400" font-size="10.583" font-family="sans-serif" letter-spacing="0" word-spacing="0" stroke-width=".265"><tspan y="133.059" x="130.25" font-size="5.644">Rollup</tspan></text><circle r="1.323" cy="155.869" cx="111.429"/><text y="152.307" x="94.392" style="line-height:1.25" font-weight="400" font-size="10.583" font-family="sans-serif" letter-spacing="0" word-spacing="0" stroke-width=".265"><tspan y="152.307" x="94.392" font-size="5.644">Babel</tspan></text><circle r="1.323" cy="142.132" cx="110.041"/><text y="136.978" x="82.651" style="line-height:1.25" font-weight="400" font-size="10.583" font-family="sans-serif" letter-spacing="0" word-spacing="0" stroke-width=".265"><tspan y="136.978" x="82.651" font-size="5.644">webpack</tspan></text><circle r="1.323" cy="134.236" cx="119.107"/><text y="128.684" x="107.644" style="line-height:1.25" font-weight="400" font-size="10.583" font-family="sans-serif" letter-spacing="0" word-spacing="0" stroke-width=".265"><tspan y="128.684" x="107.644" font-size="5.644">Grunt</tspan></text><circle r="2.646" cy="166.634" cx="188.214"/><circle r="1.323" cy="177.437" cx="180.173"/><circle r="1.323" cy="158.869" cx="197.936"/><text y="171.935" x="195.418" style="line-height:1.25" font-weight="400" font-size="10.583" font-family="sans-serif" letter-spacing="0" word-spacing="0" stroke-width=".265"><tspan y="171.935" x="195.418" font-size="7.056">Libraries</tspan></text><text y="185.258" x="174.471" style="line-height:1.25" font-weight="400" font-size="10.583" font-family="sans-serif" letter-spacing="0" word-spacing="0" stroke-width=".265"><tspan y="185.258" x="174.471" font-size="5.644">Async</tspan></text><text y="157.642" x="202.529" style="line-height:1.25" font-weight="400" font-size="10.583" font-family="sans-serif" letter-spacing="0" word-spacing="0" stroke-width=".265"><tspan y="157.642" x="202.529" font-size="5.644">Sequelize</tspan></text><circle r="1.323" cy="178.003" cx="198.332"/><text y="181.608" x="200.805" style="line-height:1.25" font-weight="400" font-size="10.583" font-family="sans-serif" letter-spacing="0" word-spacing="0" stroke-width=".265"><tspan y="181.608" x="200.805" font-size="5.644">Passport</tspan></text><circle r="2.646" cy="120.27" cx="146.19"/><circle r="1.323" cy="108.011" cx="155.534"/><text y="121.053" x="115.31" style="line-height:1.25" font-weight="400" font-size="10.583" font-family="sans-serif" letter-spacing="0" word-spacing="0" stroke-width=".265"><tspan y="121.053" x="115.31" font-size="7.056">Testing</tspan></text><text y="103.255" x="152.831" style="line-height:1.25" font-weight="400" font-size="10.583" font-family="sans-serif" letter-spacing="0" word-spacing="0" stroke-width=".265"><tspan y="103.255" x="152.831" font-size="5.644">Travis CI</tspan></text><circle r="1.323" cy="110.252" cx="141.688"/><text y="104.7" x="130.225" style="line-height:1.25" font-weight="400" font-size="10.583" font-family="sans-serif" letter-spacing="0" word-spacing="0" stroke-width=".265"><tspan y="104.7" x="130.225" font-size="5.644">Mocha</tspan></text></g><g fill="#637074"><circle transform="rotate(-45)" r="3.969" cy="272.904" cx="-33.968"/><text y="204.893" x="147.126" style="line-height:1.25" font-weight="400" font-size="10.583" font-family="sans-serif" letter-spacing="0" word-spacing="0" stroke-width=".265"><tspan y="204.893" x="147.126" font-size="8.467">JavaScript</tspan></text><circle r="2.646" cy="244.494" cx="188.656"/><circle r="1.323" cy="231.602" cx="189.209"/><circle r="1.323" cy="234.838" cx="197.192"/><text y="251.791" x="192.615" style="line-height:1.25" font-weight="400" font-size="10.583" font-family="sans-serif" letter-spacing="0" word-spacing="0" stroke-width=".265"><tspan y="251.791" x="192.615" font-size="7.056">Frameworks</tspan></text><text y="233.699" x="200.841" style="line-height:1.25" font-weight="400" font-size="10.583" font-family="sans-serif" letter-spacing="0" word-spacing="0" stroke-width=".265"><tspan y="233.699" x="200.841" font-size="5.644">Angular</tspan></text><text y="226.845" x="187.303" style="line-height:1.25" font-weight="400" font-size="10.583" font-family="sans-serif" letter-spacing="0" word-spacing="0" stroke-width=".265"><tspan y="226.845" x="187.303" font-size="5.644">Ionic (Web)</tspan></text><circle r="1.323" cy="255.862" cx="198.774"/><text y="259.467" x="201.247" style="line-height:1.25" font-weight="400" font-size="10.583" font-family="sans-serif" letter-spacing="0" word-spacing="0" stroke-width=".265"><tspan y="259.467" x="201.247" font-size="5.644">React</tspan></text><circle r="1.323" cy="258.176" cx="189.085"/><text y="266.854" x="188.683" style="line-height:1.25" font-weight="400" font-size="10.583" font-family="sans-serif" letter-spacing="0" word-spacing="0" stroke-width=".265"><tspan y="266.854" x="188.683" font-size="5.644">Vue.js</tspan></text><circle r="1.323" cy="253.767" cx="179.193"/><text y="260.947" x="159.82" style="line-height:1.25" font-weight="400" font-size="10.583" font-family="sans-serif" letter-spacing="0" word-spacing="0" stroke-width=".265"><tspan y="260.947" x="159.82" font-size="5.644">Ember.js</tspan></text><circle r="2.646" cy="204.75" cx="196.018"/><circle r="1.323" cy="196.583" cx="189.226"/><circle r="1.323" cy="196.986" cx="205.741"/><text y="208.054" x="201.724" style="line-height:1.25" font-weight="400" font-size="10.583" font-family="sans-serif" letter-spacing="0" word-spacing="0" stroke-width=".265"><tspan y="208.054" x="201.724" font-size="7.056">Libraries</tspan></text><text y="192.922" x="190.013" style="line-height:1.25" font-weight="400" font-size="10.583" font-family="sans-serif" letter-spacing="0" word-spacing="0" stroke-width=".265"><tspan y="192.922" x="190.013" font-size="5.644">RxJS</tspan></text><text y="199.253" x="209.834" style="line-height:1.25" font-weight="400" font-size="10.583" font-family="sans-serif" letter-spacing="0" word-spacing="0" stroke-width=".265"><tspan y="199.253" x="209.834" font-size="5.644">D3</tspan></text><circle r="1.323" cy="215.37" cx="202.891"/><text y="218.975" x="205.364" style="line-height:1.25" font-weight="400" font-size="10.583" font-family="sans-serif" letter-spacing="0" word-spacing="0" stroke-width=".265"><tspan y="218.975" x="205.364" font-size="5.644">Lodash</tspan></text><circle r="2.646" cy="238.291" cx="154.219"/><circle r="1.323" cy="230.124" cx="147.426"/><circle r="1.323" cy="237.765" cx="143.224"/><text y="246.837" x="126.228" style="line-height:1.25" font-weight="400" font-size="10.583" font-family="sans-serif" letter-spacing="0" word-spacing="0" stroke-width=".265"><tspan y="246.837" x="126.228" font-size="7.056">Testing</tspan></text><text y="226.213" x="133.487" style="line-height:1.25" font-weight="400" font-size="10.583" font-family="sans-serif" letter-spacing="0" word-spacing="0" stroke-width=".265"><tspan y="226.213" x="133.487" font-size="5.644">Protractor</tspan></text><text y="248.768" x="152.809" style="line-height:1.25" font-weight="400" font-size="10.583" font-family="sans-serif" letter-spacing="0" word-spacing="0" stroke-width=".265"><tspan y="248.768" x="152.809" font-size="5.644">Jasmine</tspan></text><circle r="1.323" cy="241.173" cx="164.586"/><text y="235.543" x="123.128" style="line-height:1.25" font-weight="400" font-size="10.583" font-family="sans-serif" letter-spacing="0" word-spacing="0" stroke-width=".265"><tspan y="235.543" x="123.128" font-size="5.644">Karma</tspan></text><circle r="1.323" cy="241.137" cx="202.17"/><text y="242.246" x="206.141" style="line-height:1.25" font-weight="400" font-size="10.583" font-family="sans-serif" letter-spacing="0" word-spacing="0" stroke-width=".265"><tspan y="242.246" x="206.141" font-size="5.644">TypeScript</tspan></text></g><g fill="#2274a5"><circle transform="rotate(-45)" r="3.969" cy="172.496" cx="-72.141"/><text y="186.134" x="55.457" style="line-height:1.25" font-weight="400" font-size="10.583" font-family="sans-serif" letter-spacing="0" word-spacing="0" stroke-width=".265"><tspan y="186.134" x="55.457" font-size="8.467">Java (J2EE)</tspan></text><circle r="2.646" cy="156.112" cx="44.91"/><circle r="1.323" cy="144.658" cx="50.705"/><circle r="1.323" cy="149.951" cx="57.44"/><text y="161.087" x="49.257" style="line-height:1.25" font-weight="400" font-size="10.583" font-family="sans-serif" letter-spacing="0" word-spacing="0" stroke-width=".265"><tspan y="161.087" x="49.257" font-size="7.056">Frameworks</tspan></text><text y="141.469" x="28.365" style="line-height:1.25" font-weight="400" font-size="10.583" font-family="sans-serif" letter-spacing="0" word-spacing="0" stroke-width=".265"><tspan y="141.469" x="28.365" font-size="5.644">Struts</tspan></text><text y="139.902" x="48.798" style="line-height:1.25" font-weight="400" font-size="10.583" font-family="sans-serif" letter-spacing="0" word-spacing="0" stroke-width=".265"><tspan y="139.902" x="48.798" font-size="5.644">Spring</tspan></text><circle r="1.323" cy="145.583" cx="37.352"/><text y="151.351" x="17.4" style="line-height:1.25" font-weight="400" font-size="10.583" font-family="sans-serif" letter-spacing="0" word-spacing="0" stroke-width=".265"><tspan y="151.351" x="17.4" font-size="5.644">OSGI</tspan></text><circle r="1.323" cy="154.999" cx="30.817"/><text y="148.403" x="59.974" style="line-height:1.25" font-weight="400" font-size="10.583" font-family="sans-serif" letter-spacing="0" word-spacing="0" stroke-width=".265"><tspan y="148.403" x="59.974" font-size="5.644">ZK</tspan></text><circle r="2.646" cy="181.396" cx="41.413"/><text y="192.386" x="38.586" style="line-height:1.25" font-weight="400" font-size="10.583" font-family="sans-serif" letter-spacing="0" word-spacing="0" stroke-width=".265"><tspan y="192.386" x="38.586" font-size="7.056">Tools</tspan></text><circle r="1.323" cy="189.042" cx="28.492"/><text y="185.714" x="4.693" style="line-height:1.25" font-weight="400" font-size="10.583" font-family="sans-serif" letter-spacing="0" word-spacing="0" stroke-width=".265"><tspan y="185.714" x="4.693" font-size="5.644">Hibernate</tspan></text><circle r="1.323" cy="174.935" cx="29.697"/><text y="175.543" x="16.68" style="line-height:1.25" font-weight="400" font-size="10.583" font-family="sans-serif" letter-spacing="0" word-spacing="0" stroke-width=".265"><tspan y="175.543" x="16.68" font-size="5.644">JPA</tspan></text><circle r="1.323" cy="169.138" cx="41.245"/><text y="167.166" x="16.61" style="line-height:1.25" font-weight="400" font-size="10.583" font-family="sans-serif" letter-spacing="0" word-spacing="0" stroke-width=".265"><tspan y="167.166" x="16.61" font-size="5.644">Jenkins</tspan></text></g><g fill="#816c61"><circle transform="rotate(-45)" r="3.969" cy="129.306" cx="-40.615"/><text y="129.333" x="67.052" style="line-height:1.25" font-weight="400" font-size="10.583" font-family="sans-serif" letter-spacing="0" word-spacing="0" stroke-width=".265"><tspan y="129.333" x="67.052" font-size="8.467">Mobile</tspan></text><circle r="1.323" cy="121.153" cx="47.203"/><text y="129.129" x="14.188" style="line-height:1.25" font-weight="400" font-size="10.583" font-family="sans-serif" letter-spacing="0" word-spacing="0" stroke-width=".265"><tspan y="129.129" x="14.188" font-size="5.644">Ionic (Mobile)</tspan></text><circle r="1.323" cy="110.804" cx="53.65"/><text y="111.672" x="14.161" style="line-height:1.25" font-weight="400" font-size="10.583" font-family="sans-serif" letter-spacing="0" word-spacing="0" stroke-width=".265"><tspan y="111.672" x="14.161" font-size="5.644">React Native</tspan></text><circle r="1.323" cy="108.777" cx="68.412"/><text y="104.543" x="50.597" style="line-height:1.25" font-weight="400" font-size="10.583" font-family="sans-serif" letter-spacing="0" word-spacing="0" stroke-width=".265"><tspan y="104.543" x="50.597" font-size="5.644">NativeScript</tspan></text><circle r="1.323" cy="116.528" cx="78.348"/><text y="111.535" x="76.457" style="line-height:1.25" font-weight="400" font-size="10.583" font-family="sans-serif" letter-spacing="0" word-spacing="0" stroke-width=".265"><tspan y="111.535" x="76.457" font-size="5.644">Android Studio</tspan></text></g><g fill="#8693ab"><circle transform="rotate(-45)" r="3.969" cy="206.064" cx="-87.841"/><text y="220.564" x="80.303" style="line-height:1.25" font-weight="400" font-size="10.583" font-family="sans-serif" letter-spacing="0" word-spacing="0" stroke-width=".265"><tspan y="220.564" x="80.303" font-size="8.467">Python</tspan></text><circle r="2.646" cy="215.97" cx="40.788"/><circle r="1.323" cy="204.515" cx="46.583"/><text y="224.65" x="12.898" style="line-height:1.25" font-weight="400" font-size="10.583" font-family="sans-serif" letter-spacing="0" word-spacing="0" stroke-width=".265"><tspan y="224.65" x="12.898" font-size="7.056">Frameworks</tspan></text><text y="201.326" x="24.242" style="line-height:1.25" font-weight="400" font-size="10.583" font-family="sans-serif" letter-spacing="0" word-spacing="0" stroke-width=".265"><tspan y="201.326" x="24.242" font-size="5.644">Flask</tspan></text><text y="199.759" x="44.676" style="line-height:1.25" font-weight="400" font-size="10.583" font-family="sans-serif" letter-spacing="0" word-spacing="0" stroke-width=".265"><tspan y="199.759" x="44.676" font-size="5.644">Django</tspan></text><circle r="1.323" cy="205.44" cx="33.229"/><text y="210.468" x="5.867" style="line-height:1.25" font-weight="400" font-size="10.583" font-family="sans-serif" letter-spacing="0" word-spacing="0" stroke-width=".265"><tspan y="210.468" x="5.867" font-size="5.644">Web2py</tspan></text><circle r="1.323" cy="214.857" cx="26.695"/><circle r="2.646" cy="245.202" cx="58.464"/><circle r="1.323" cy="252.299" cx="43.754"/><circle r="1.323" cy="233.731" cx="52.624"/><text y="246.056" x="62.333" style="line-height:1.25" font-weight="400" font-size="10.583" font-family="sans-serif" letter-spacing="0" word-spacing="0" stroke-width=".265"><tspan y="246.056" x="62.333" font-size="7.056">Libraries</tspan></text><text y="254.562" x="13.597" style="line-height:1.25" font-weight="400" font-size="10.583" font-family="sans-serif" letter-spacing="0" word-spacing="0" stroke-width=".265"><tspan y="254.562" x="13.597" font-size="5.644">Tornado</tspan></text><text y="234.728" x="11.271" style="line-height:1.25" font-weight="400" font-size="10.583" font-family="sans-serif" letter-spacing="0" word-spacing="0" stroke-width=".265"><tspan y="234.728" x="11.271" font-size="5.644">SQLAlchemy</tspan></text><circle r="1.323" cy="259.164" cx="51.167"/><text y="263.881" x="18.81" style="line-height:1.25" font-weight="400" font-size="10.583" font-family="sans-serif" letter-spacing="0" word-spacing="0" stroke-width=".265"><tspan y="263.881" x="18.81" font-size="5.644">matplotlib</tspan></text><circle r="1.323" cy="243.093" cx="44.099"/><text y="243.718" x="14.232" style="line-height:1.25" font-weight="400" font-size="10.583" font-family="sans-serif" letter-spacing="0" word-spacing="0" stroke-width=".265"><tspan y="243.718" x="14.232" font-size="5.644">Requests</tspan></text><circle r="1.323" cy="258.96" cx="61.927"/><text y="267.382" x="54.396" style="line-height:1.25" font-weight="400" font-size="10.583" font-family="sans-serif" letter-spacing="0" word-spacing="0" stroke-width=".265"><tspan y="267.382" x="54.396" font-size="5.644">NumPy</tspan></text><circle r="1.323" cy="252.846" cx="69.566"/><text y="260.156" x="69.074" style="line-height:1.25" font-weight="400" font-size="10.583" font-family="sans-serif" letter-spacing="0" word-spacing="0" stroke-width=".265"><tspan y="260.156" x="69.074" font-size="5.644">SciPy</tspan></text></g><g fill="#e7dfc6"><circle transform="rotate(-45)" r="3.969" cy="254.109" cx="-95.294"/><text y="239.094" x="91.607" style="line-height:1.25" font-weight="400" font-size="10.583" font-family="sans-serif" letter-spacing="0" word-spacing="0" stroke-width=".265"><tspan y="239.094" x="91.607" font-size="8.467">Other</tspan></text><circle r="1.323" cy="258.96" cx="114.653"/><text y="266.27" x="114.162" style="line-height:1.25" font-weight="400" font-size="10.583" font-family="sans-serif" letter-spacing="0" word-spacing="0" stroke-width=".265"><tspan y="266.27" x="114.162" font-size="5.644">CUDA</tspan></text><circle r="1.323" cy="252.29" cx="126.881"/><text y="259.601" x="126.389" style="line-height:1.25" font-weight="400" font-size="10.583" font-family="sans-serif" letter-spacing="0" word-spacing="0" stroke-width=".265"><tspan y="259.601" x="126.389" font-size="5.644">OpenCV</tspan></text><circle r="1.323" cy="259.507" cx="102.885"/><text y="266.817" x="90.908" style="line-height:1.25" font-weight="400" font-size="10.583" font-family="sans-serif" letter-spacing="0" word-spacing="0" stroke-width=".265"><tspan y="266.817" x="90.908" font-size="5.644">C++</tspan></text><circle r="1.323" cy="248.02" cx="98.439"/><text y="254.96" x="86.091" style="line-height:1.25" font-weight="400" font-size="10.583" font-family="sans-serif" letter-spacing="0" word-spacing="0" stroke-width=".265"><tspan y="254.96" x="86.091" font-size="5.644">MatLab</tspan></text></g></g></svg>